<?xml version="1.0" encoding="UTF-8"?> <svg xmlns="http://www.w3.org/2000/svg" width="44" height="43" viewBox="0 0 44 43" fill="none"><g id="Clip path group"><mask id="mask0_310_1478" style="mask-type:luminance" maskUnits="userSpaceOnUse" x="0" y="0" width="44" height="43"><g id="clip0"><path id="Vector" d="M0 0H43.2147V42.56H0V0Z" fill="white"></path></g></mask><g mask="url(#mask0_310_1478)"><g id="Group"><path id="Vector_2" d="M41.2421 0.00202393C11.0605 0.00202393 13.0693 -0.0058333 12.6385 0.0111907C9.35286 0.149347 6.29248 1.51519 4.02043 3.85665C-1.94451 10.003 -0.0299712 20.0144 7.61838 23.6994H4.80484C3.2203 23.6994 1.93106 24.9697 1.93106 26.53C1.93106 28.0903 3.22096 29.3599 4.8055 29.3599H5.56306C5.24758 29.823 5.07886 30.3703 5.07886 30.9307C5.07886 31.491 5.24758 32.0384 5.56306 32.5015H4.80484C3.2203 32.5015 1.93106 33.7711 1.93106 35.3314C1.93106 36.8923 3.22096 38.1619 4.8055 38.1619H5.03728C3.77031 40.0346 5.13812 42.56 7.42915 42.56H41.2421C42.0671 42.56 42.7369 41.9 42.7369 41.0881V1.4746C42.7369 0.662686 42.0664 0.00202393 41.2421 0.00202393ZM4.80484 28.0982C3.92745 28.0982 3.2131 27.3949 3.2131 26.53C3.2131 25.665 3.92745 24.9618 4.80484 24.9618H21.9598C22.8385 24.9618 23.5528 25.665 23.5528 26.53C23.5528 27.3943 22.8385 28.0982 21.9598 28.0982H4.80484ZM16.85 32.4989H7.95297C7.07558 32.4989 6.36057 31.795 6.36057 30.9307C6.36057 30.0664 7.07492 29.3625 7.95297 29.3625H16.85C16.5358 29.8251 16.3678 30.3715 16.3678 30.9307C16.3678 31.4899 16.5358 32.0362 16.85 32.4989ZM33.25 33.7632C34.128 33.7632 34.8424 34.4671 34.8424 35.3314C34.8424 36.1957 34.128 36.8996 33.25 36.8996H16.095C15.217 36.8996 14.5026 36.1957 14.5026 35.3314C14.5026 34.4671 15.2163 33.7632 16.095 33.7632H33.25ZM4.80484 36.8996C3.92745 36.8996 3.2131 36.1957 3.2131 35.3314C3.2131 34.4671 3.92745 33.7632 4.80484 33.7632H13.7031C13.3891 34.2259 13.2211 34.7722 13.2211 35.3314C13.2211 35.8906 13.3891 36.4369 13.7031 36.8996H4.80484ZM16.3275 41.2983H7.42915C6.55111 41.2983 5.83676 40.5951 5.83676 39.7301C5.83676 38.8652 6.55045 38.1619 7.42915 38.1619H16.3275C16.0131 38.6245 15.8452 39.1709 15.8456 39.7301C15.8456 40.3096 16.023 40.8491 16.3275 41.2983ZM35.8736 41.2983H18.7187C17.8413 41.2983 17.1269 40.5951 17.1269 39.7301C17.1269 38.8652 17.8406 38.1619 18.7193 38.1619H35.8736C36.751 38.1619 37.4654 38.8652 37.4654 39.7301C37.4654 40.5951 36.7517 41.2983 35.8736 41.2983ZM41.4562 41.0881C41.4559 41.116 41.4502 41.1435 41.4393 41.1691C41.4284 41.1948 41.4125 41.218 41.3927 41.2375C41.3728 41.2571 41.3492 41.2725 41.3234 41.2829C41.2976 41.2933 41.2699 41.2985 41.2421 41.2983H38.2648C39.5351 39.427 38.1653 36.8996 35.8743 36.8996H35.6418C35.9565 36.4367 36.1246 35.8899 36.1244 35.3302C36.1242 34.7705 35.9556 34.2238 35.6405 33.7612H36.3974C37.982 33.7612 39.2719 32.491 39.2719 30.9307C39.2719 29.3704 37.982 28.1008 36.3974 28.1008H32.662C32.4934 28.0995 32.3312 28.1653 32.2111 28.2835C32.0909 28.4017 32.0225 28.5627 32.021 28.7313C32.021 29.0796 32.3084 29.3625 32.6626 29.3625H36.3974C37.2761 29.3625 37.9898 30.0657 37.9898 30.9307C37.9898 31.795 37.2761 32.4989 36.3974 32.4989H19.2425C18.3651 32.4989 17.6501 31.795 17.6501 30.9307C17.6501 30.0664 18.3651 29.3625 19.2425 29.3625H30.0992C30.4528 29.3625 30.7402 29.0803 30.7402 28.7313C30.7395 28.6478 30.7224 28.5653 30.6898 28.4884C30.6572 28.4115 30.6098 28.3418 30.5503 28.2833C30.4908 28.2247 30.4203 28.1785 30.3429 28.1472C30.2655 28.1158 30.1827 28.1001 30.0992 28.1008H24.351C24.6664 27.6374 24.835 27.0898 24.8349 26.5293C24.8349 24.969 23.545 23.6994 21.9604 23.6994H18.7265C20.8207 22.6983 22.5986 21.1397 23.8652 19.1946C23.9103 19.1248 23.9411 19.0467 23.9557 18.9648C23.9703 18.883 23.9685 18.7991 23.9504 18.7179C23.9322 18.6368 23.8981 18.5601 23.8499 18.4923C23.8018 18.4245 23.7406 18.367 23.67 18.3231C23.5268 18.233 23.354 18.2027 23.1886 18.2386C23.0232 18.2744 22.8785 18.3736 22.7854 18.515C20.6823 21.7548 16.9364 23.8402 12.7426 23.6922C6.64147 23.4696 1.78963 18.5588 1.78963 12.4727C1.78963 6.21709 7.08474 0.80477 14.024 1.29126C21.7358 1.83865 26.4449 9.54331 23.8652 16.3804C23.8361 16.4585 23.8229 16.5415 23.8263 16.6248C23.8296 16.708 23.8495 16.7897 23.8847 16.8652C23.9199 16.9407 23.9698 17.0084 24.0314 17.0645C24.093 17.1205 24.1651 17.1637 24.2436 17.1917C24.4022 17.2501 24.5775 17.2438 24.7315 17.1741C24.8855 17.1043 25.0059 16.9768 25.0667 16.8191C27.323 10.8267 24.605 4.09105 18.7462 1.26376H41.2427C41.3606 1.26376 41.4568 1.35805 41.4568 1.47394V41.0875L41.4562 41.0881Z" fill="black"></path><path id="Vector_3" d="M12.9675 16.4014C11.9474 16.4014 11.4877 15.9574 11.1531 15.6327C10.9672 15.4533 10.8205 15.3118 10.6306 15.3118C10.2889 15.3118 9.99683 15.7211 9.99683 16.057C9.99683 16.6528 10.9934 17.5249 12.5393 17.6795V18.9883C12.5399 19.0719 12.557 19.1544 12.5895 19.2314C12.6221 19.3083 12.6695 19.378 12.729 19.4366C12.7886 19.4951 12.8591 19.5414 12.9365 19.5727C13.0139 19.604 13.0968 19.6197 13.1803 19.6189C13.2638 19.6196 13.3466 19.6038 13.4239 19.5725C13.5013 19.5412 13.5717 19.4949 13.6312 19.4363C13.6907 19.3778 13.738 19.3081 13.7705 19.2312C13.803 19.1543 13.8201 19.0718 13.8207 18.9883V17.6343C15.2893 17.3671 16.1425 16.332 16.1425 14.7513C16.1425 11.0257 11.6468 12.1224 11.6468 10.001C11.6468 8.94878 12.5877 8.72747 13.3774 8.72747C14.131 8.72747 14.5416 8.93634 14.8415 9.08759C15.0078 9.17271 15.1387 9.23884 15.2769 9.23884C15.6828 9.23884 15.8963 8.75366 15.8963 8.49372C15.8963 7.8599 14.759 7.56722 13.8207 7.4965V5.97351C13.8193 5.805 13.7511 5.64394 13.631 5.52571C13.5109 5.40748 13.3488 5.34175 13.1803 5.34297C13.0968 5.34219 13.0139 5.35789 12.9364 5.38917C12.8589 5.42044 12.7884 5.46668 12.7288 5.52524C12.6692 5.5838 12.6217 5.65353 12.5891 5.73045C12.5565 5.80737 12.5393 5.88996 12.5386 5.97351V7.5515L12.5393 7.55412C11.5584 7.7296 10.2424 8.30187 10.2424 10.109C10.2424 13.466 14.7387 12.2868 14.7387 14.8594C14.7387 15.854 14.1094 16.4014 12.9675 16.4014Z" fill="black"></path><path id="Vector_4" d="M5.62762 7.19334C5.57891 7.26069 5.54411 7.33707 5.52527 7.41802C5.50643 7.49898 5.50391 7.58288 5.51787 7.66481C5.53184 7.74675 5.56199 7.82508 5.60658 7.89523C5.65117 7.96537 5.7093 8.02593 5.77756 8.07334C5.91625 8.1706 6.08755 8.20959 6.25467 8.18192C6.42178 8.15425 6.57138 8.06214 6.67132 7.92537C9.9301 3.42056 16.6834 3.57967 19.7818 8.05501C23.6868 13.6972 18.8631 21.2407 12.0352 20.2638C7.18335 19.5698 4.02409 14.716 5.60536 10.0003C5.6315 9.92125 5.64167 9.83776 5.63527 9.75471C5.62887 9.67166 5.60603 9.59072 5.56808 9.51657C5.53012 9.44243 5.47781 9.37657 5.41418 9.32282C5.35056 9.26907 5.27688 9.2285 5.19744 9.20348C5.03686 9.15054 4.8619 9.16297 4.71043 9.2381C4.55896 9.31322 4.44317 9.44498 4.38814 9.60485C3.93869 10.937 3.80753 12.3559 4.00514 13.7478C4.20276 15.1398 4.72367 16.4661 5.52613 17.6205C8.60747 22.0723 14.979 22.9818 19.216 19.4035C22.7957 16.3804 23.5015 11.1887 20.8399 7.34393C17.2386 2.14179 9.40236 1.97483 5.62762 7.19334ZM39.4366 4.74843H26.666C26.5825 4.74774 26.4997 4.7635 26.4223 4.79481C26.3449 4.82613 26.2744 4.87238 26.2149 4.93093C26.1554 4.98949 26.108 5.05919 26.0754 5.13606C26.0428 5.21294 26.0257 5.29548 26.025 5.37897C26.025 5.72731 26.3118 6.01017 26.666 6.01017H39.4366C39.7908 6.01017 40.0783 5.72731 40.0783 5.37897C40.0776 5.29542 40.0604 5.21283 40.0278 5.13591C39.9952 5.05899 39.9477 4.98926 39.8881 4.9307C39.8285 4.87214 39.758 4.8259 39.6805 4.79463C39.603 4.76335 39.5202 4.74765 39.4366 4.74843ZM39.4366 9.45949H28.1615C28.078 9.45889 27.9952 9.47473 27.9178 9.50613C27.8405 9.53752 27.77 9.58385 27.7106 9.64246C27.6511 9.70107 27.6038 9.77082 27.5713 9.84773C27.5388 9.92464 27.5217 10.0072 27.5211 10.0907C27.5211 10.439 27.8079 10.7219 28.1615 10.7219H39.4366C39.7908 10.7219 40.0783 10.439 40.0783 10.0907C40.0776 10.0071 40.0604 9.92455 40.0278 9.84763C39.9952 9.77071 39.9477 9.70098 39.8881 9.64242C39.8285 9.58386 39.758 9.53762 39.6805 9.50634C39.603 9.47507 39.5202 9.45871 39.4366 9.45949ZM38.7006 13.8432C38.669 13.7562 38.6189 13.677 38.5539 13.6111C38.4889 13.5451 38.4105 13.494 38.324 13.461C38.2374 13.4281 38.1448 13.4142 38.0524 13.4203C37.96 13.4263 37.8701 13.4522 37.7886 13.4961L33.9824 15.5416C33.9088 15.5805 33.8437 15.6337 33.7909 15.698C33.7381 15.7623 33.6987 15.8365 33.6749 15.9163C33.6511 15.996 33.6435 16.0797 33.6524 16.1624C33.6614 16.2451 33.6867 16.3253 33.727 16.3981C33.81 16.5455 33.9476 16.6544 34.1101 16.7014C34.2726 16.7484 34.447 16.7298 34.5959 16.6495L36.9007 15.412L33.8645 22.5555L29.8704 19.7924C29.7589 19.7156 29.6262 19.6756 29.4909 19.678C29.3555 19.6803 29.2243 19.7249 29.1155 19.8055L25.86 22.2255C25.7929 22.2747 25.7364 22.3368 25.6937 22.4082C25.651 22.4796 25.623 22.5587 25.6113 22.6411C25.5995 22.7234 25.6044 22.8072 25.6255 22.8877C25.6466 22.9681 25.6836 23.0435 25.7343 23.1095C25.9477 23.3877 26.3497 23.4434 26.6313 23.2332L29.5149 21.0895L33.7794 24.0399C33.8578 24.0943 33.9472 24.1306 34.0414 24.1462C34.1355 24.1618 34.2319 24.1564 34.3236 24.1303C34.4154 24.1042 34.5002 24.058 34.5719 23.9952C34.6437 23.9323 34.7006 23.8543 34.7386 23.7668L38.0753 15.9162L38.8316 18.0573C38.8891 18.2164 39.0069 18.3464 39.1597 18.4192C39.3124 18.4921 39.4876 18.5017 39.6474 18.4462C39.7264 18.4198 39.7993 18.378 39.862 18.3232C39.9247 18.2684 39.9758 18.2016 40.0125 18.1269C40.0492 18.0522 40.0706 17.9709 40.0756 17.8878C40.0806 17.8047 40.0691 17.7214 40.0416 17.6428L38.7006 13.8432Z" fill="black"></path></g></g></g></svg> 