<?xml version="1.0" encoding="UTF-8"?> <svg xmlns="http://www.w3.org/2000/svg" width="46" height="46" viewBox="0 0 46 46" fill="none"><g id="Clip path group"><mask id="mask0_310_1455" style="mask-type:luminance" maskUnits="userSpaceOnUse" x="0" y="0" width="46" height="46"><g id="clip0"><path id="Vector" d="M0 0H45.8338V45.8338H0V0Z" fill="white"></path></g></mask><g mask="url(#mask0_310_1455)"><g id="Group"><path id="Vector_2" d="M42.0139 3.05588H3.81927C2.80671 3.05709 1.83597 3.45987 1.11998 4.17585C0.403988 4.89184 0.00121296 5.86258 0 6.87514V32.8485C0.00121296 33.8611 0.403988 34.8318 1.11998 35.5478C1.83597 36.2638 2.80671 36.6666 3.81927 36.6678H19.097V35.1402H3.81927C3.21147 35.1402 2.62857 34.8988 2.1988 34.469C1.76902 34.0392 1.52758 33.4563 1.52758 32.8485V6.87514C1.52758 6.26735 1.76902 5.68445 2.1988 5.25467C2.62857 4.8249 3.21147 4.58345 3.81927 4.58345H42.0139C42.6217 4.58345 43.2046 4.8249 43.6344 5.25467C44.0641 5.68445 44.3056 6.26735 44.3056 6.87514V32.8485C44.3056 33.4563 44.0641 34.0392 43.6344 34.469C43.2046 34.8988 42.6217 35.1402 42.0139 35.1402H41.2504V36.6678H42.0139C43.0266 36.6667 43.9975 36.264 44.7136 35.548C45.4297 34.832 45.8326 33.8612 45.8338 32.8485V6.87514C45.8324 5.86258 45.4295 4.89191 44.7134 4.17605C43.9973 3.46018 43.0264 3.05692 42.0139 3.05588Z" fill="black"></path><path id="Vector_3" d="M42.0138 31.3203V6.87515C42.0138 6.45348 41.672 6.11169 41.2504 6.11169H4.58333C4.161 6.11169 3.81921 6.45348 3.81921 6.87515V32.8485C3.81921 33.2702 4.161 33.6126 4.58333 33.6126H24.4444V32.0844H5.34679V7.63992H40.4863V31.3209L42.0138 31.3203Z" fill="black"></path><path id="Vector_4" d="M6.87512 9.16684H8.4027V10.6951H6.87512V9.16684ZM6.87512 12.2226H9.93027V13.7502H6.87512V12.2233V12.2226ZM6.87512 15.2785H9.93027V16.806H6.87512V15.2785ZM6.87512 18.3336H9.93027V19.8618H6.87512V18.3336ZM6.87512 21.3894H9.93027V22.917H6.87512V21.3894ZM6.87512 24.4452H9.93027V25.9728H6.87512V24.4452ZM6.87512 27.5004H9.93027V29.0286H6.87512V27.5004ZM38.9588 21.3894H16.0419V19.414L17.4509 18.0043L18.4619 19.5214C18.5876 19.7132 18.7932 19.8376 19.0211 19.8618H19.097C19.3 19.8618 19.4945 19.7806 19.6372 19.6379L22.917 16.3582L24.6685 18.1097C24.8191 18.2635 25.0286 18.3454 25.2427 18.3323C25.4575 18.3225 25.6578 18.2236 25.796 18.0593L29.0279 14.1797L32.2599 18.0593C32.3974 18.2236 32.5984 18.3225 32.8131 18.3329C33.0279 18.346 33.2374 18.2642 33.3874 18.1103L35.1389 16.3582L36.1269 17.3462C36.2814 17.5053 36.5001 17.5872 36.7208 17.5675C36.83 17.5593 36.9362 17.5278 37.0322 17.475C37.1283 17.4223 37.2118 17.3495 37.2773 17.2617L39.569 14.2066L38.3479 13.2899L36.5846 15.6405L35.6791 14.7356C35.6081 14.6647 35.5239 14.6083 35.4313 14.5699C35.3386 14.5315 35.2392 14.5117 35.1389 14.5117C35.0385 14.5117 34.9392 14.5315 34.8465 14.5699C34.7538 14.6083 34.6696 14.6647 34.5987 14.7356L32.8983 16.4361L29.6139 12.4944C29.5397 12.4123 29.449 12.3468 29.3479 12.3019C29.2467 12.257 29.1373 12.2338 29.0266 12.2338C28.9159 12.2338 28.8065 12.257 28.7053 12.3019C28.6042 12.3468 28.5135 12.4123 28.4393 12.4944L25.1543 16.4361L23.4539 14.7356C23.383 14.6647 23.2988 14.6083 23.2061 14.5699C23.1134 14.5315 23.014 14.5117 22.9137 14.5117C22.8133 14.5117 22.714 14.5315 22.6213 14.5699C22.5286 14.6083 22.4444 14.6647 22.3735 14.7356L19.2123 17.8969L18.202 16.3798C18.1392 16.2859 18.0564 16.2072 17.9595 16.1491C17.8627 16.0911 17.7542 16.0552 17.6418 16.044C17.5295 16.0329 17.416 16.0468 17.3097 16.0847C17.2033 16.1226 17.1067 16.1835 17.0267 16.2632L16.0419 17.2532V12.2233H14.5137V22.1535C14.5137 22.5759 14.8561 22.9176 15.2778 22.9176H38.9588V21.3894ZM14.5137 9.16684H19.097V10.6951H14.5137V9.16684ZM20.6253 9.16684H22.1528V10.6951H20.6253V9.16684ZM14.5137 24.4452H17.5695V25.9728H14.5137V24.4452ZM19.097 24.4452H20.6253V25.9728H19.097V24.4452ZM14.5137 27.5004H17.5695V29.0286H14.5137V27.5004ZM19.097 27.5004H20.6253V29.0286H19.097V27.5004ZM23.6804 24.4452H25.2086V25.9728H23.6804V24.4452ZM32.8472 24.4452H35.903V25.9728H32.8472V24.4452ZM37.4306 24.4452H38.9588V25.9728H37.4306V24.4452ZM32.8472 27.5004H35.903V29.0286H32.8472V27.5004ZM37.4306 27.5004H38.9588V29.0286H37.4306V27.5004Z" fill="black"></path><path id="Vector_5" d="M37.8129 31.3504C37.4736 31.294 37.126 31.3145 36.7956 31.4104C36.4653 31.5063 36.1607 31.6751 35.9043 31.9043C35.4846 31.5277 34.9406 31.3194 34.3767 31.3194C33.8128 31.3194 33.2688 31.5277 32.8491 31.9043C32.5383 31.6381 32.1642 31.4565 31.7628 31.3769C31.3614 31.2973 30.9463 31.3224 30.5574 31.4499V27.5822C30.5644 27.0297 30.3769 26.4924 30.0277 26.0641C29.6786 25.6359 29.19 25.344 28.6475 25.2394C28.3186 25.1835 27.9815 25.2 27.6597 25.2879C27.3379 25.3757 27.0391 25.5328 26.7844 25.7481C26.5296 25.9635 26.3249 26.2318 26.1846 26.5345C26.0443 26.8371 25.9718 27.1668 25.9721 27.5004V36.8459L23.9449 35.63C23.6405 35.446 23.2944 35.3425 22.939 35.3291C22.5836 35.3157 22.2306 35.3929 21.9132 35.5534L21.7921 35.6129C21.4662 35.776 21.188 36.0206 20.9846 36.3229C20.7811 36.6252 20.6593 36.975 20.631 37.3382C20.6027 37.7015 20.6688 38.066 20.8229 38.3962C20.977 38.7263 21.2139 39.0111 21.5105 39.2227L26.2923 42.638C26.4226 42.7296 26.5771 42.7787 26.7362 42.7781H38.9588C39.3805 42.7781 39.7222 42.4363 39.7222 42.0146V33.6932C39.7292 33.1408 39.5418 32.6035 39.1928 32.1753C38.8438 31.747 38.3554 31.4551 37.8129 31.3504ZM38.1947 41.2505H26.9804L22.3971 37.9767C22.3147 37.9183 22.2489 37.8395 22.206 37.7481C22.1631 37.6567 22.1446 37.5557 22.1523 37.4551C22.16 37.3544 22.1937 37.2574 22.25 37.1736C22.3063 37.0898 22.3834 37.022 22.4737 36.9768L22.5941 36.9179C22.6817 36.8734 22.7792 36.8519 22.8774 36.8556C22.9756 36.8593 23.0713 36.8879 23.1553 36.9389L26.3401 38.8488C26.456 38.9191 26.5886 38.9573 26.7241 38.9594C26.8597 38.9616 26.9934 38.9276 27.1115 38.861C27.2296 38.7944 27.3278 38.6976 27.3962 38.5805C27.4645 38.4634 27.5005 38.3303 27.5003 38.1947V27.5004C27.5005 27.3888 27.525 27.2786 27.5722 27.1776C27.6194 27.0765 27.6882 26.987 27.7737 26.9153C27.8591 26.8436 27.9592 26.7915 28.067 26.7626C28.1747 26.7337 28.2875 26.7287 28.3974 26.748C28.7791 26.841 29.0423 27.1894 29.0279 27.5822V33.6113C29.0279 33.814 29.1084 34.0083 29.2517 34.1516C29.395 34.2949 29.5894 34.3754 29.792 34.3754C29.9947 34.3754 30.189 34.2949 30.3323 34.1516C30.4756 34.0083 30.5561 33.814 30.5561 33.6113C30.562 33.4126 30.645 33.224 30.7876 33.0855C30.9302 32.947 31.1211 32.8696 31.3199 32.8696C31.5187 32.8696 31.7097 32.947 31.8523 33.0855C31.9949 33.224 32.0779 33.4126 32.0837 33.6113C32.0895 33.81 32.1726 33.9986 32.3152 34.1371C32.4578 34.2756 32.6487 34.3531 32.8475 34.3531C33.0463 34.3531 33.2372 34.2756 33.3798 34.1371C33.5224 33.9986 33.6055 33.81 33.6113 33.6113C33.6113 33.4087 33.6918 33.2143 33.8351 33.071C33.9784 32.9277 34.1727 32.8472 34.3754 32.8472C34.5781 32.8472 34.7724 32.9277 34.9157 33.071C35.059 33.2143 35.1395 33.4087 35.1395 33.6113C35.1453 33.81 35.2284 33.9986 35.371 34.1371C35.5136 34.2756 35.7045 34.3531 35.9033 34.3531C36.1021 34.3531 36.293 34.2756 36.4356 34.1371C36.5783 33.9986 36.6613 33.81 36.6671 33.6113C36.6671 33.4997 36.6916 33.3895 36.7388 33.2884C36.7859 33.1873 36.8547 33.0977 36.9402 33.026C37.0257 32.9543 37.1258 32.9022 37.2336 32.8733C37.3414 32.8445 37.4542 32.8396 37.5641 32.859C37.9459 32.9526 38.2091 33.301 38.1947 33.6932V41.2505ZM11.4585 9.16684H12.9861V30.5568H11.4585V9.16684Z" fill="black"></path></g></g></g></svg> 