<?xml version="1.0" encoding="UTF-8"?>
<svg xmlns="http://www.w3.org/2000/svg" width="150" height="150" viewBox="0 0 150 150" fill="none">
	<path d="M39.6401 92.79C38.7101 92.79 37.8401 92.43 37.1901 91.77L32.7701 87.35C31.4201 86 31.4201 83.8 32.7701 82.45L52.8401 62.37C53.4901 61.71 54.3701 61.35 55.2901 61.35C56.2101 61.35 57.0901 61.71 57.7401 62.37L70.8901 75.52L99.1801 47.23L94.6201 42.67C93.6201 41.67 93.3301 40.19 93.8701 38.89C94.4101 37.59 95.6701 36.75 97.0701 36.75H115.52C117.43 36.75 118.99 38.31 118.99 40.22V58.67C118.99 59.64 118.6 60.54 117.9 61.2C117.25 61.81 116.4 62.14 115.51 62.14C114.59 62.14 113.73 61.78 113.07 61.12L108.51 56.56L75.7901 89.28C75.6901 89.38 75.5801 89.47 75.4701 89.56L73.3201 91.71C72.6701 92.37 71.7901 92.73 70.8701 92.73C69.9501 92.73 69.0701 92.37 68.4201 91.71L55.2901 78.58L42.0901 91.78C41.4401 92.44 40.5601 92.8 39.6401 92.8V92.79Z" stroke="black" stroke-width="5.5" stroke-miterlimit="10">
	</path>
	<path d="M91.5701 73.5V113.18C91.5701 114.57 92.7001 115.71 94.1001 115.71H105.18C106.58 115.71 107.71 114.57 107.71 113.18V57.37" stroke="black" stroke-width="5.5" stroke-linecap="round" stroke-linejoin="round">
	</path>
	<path d="M74.54 90.5V113.18C74.54 114.57 75.67 115.71 77.07 115.71H89.04C90.44 115.71 91.57 114.57 91.57 113.18V73.5" stroke="black" stroke-width="5.5" stroke-linecap="round" stroke-linejoin="round">
	</path>
	<path d="M57.51 80.96V113.18C57.51 114.57 58.64 115.71 60.04 115.71H72.01C73.4 115.71 74.54 114.57 74.54 113.18V90.5" stroke="black" stroke-width="5.5" stroke-linecap="round" stroke-linejoin="round">
	</path>
	<path d="M40.47 92.68V113.18C40.47 114.57 41.61 115.71 43 115.71H54.98C56.38 115.71 57.51 114.57 57.51 113.18V80.79" stroke="black" stroke-width="5.5" stroke-linecap="round" stroke-linejoin="round">
	</path>
</svg>
