<?xml version="1.0" encoding="UTF-8"?> <svg xmlns="http://www.w3.org/2000/svg" width="150" height="150" viewBox="0 0 150 150" fill="none"><g clip-path="url(#clip0_17_303)"><mask id="mask0_17_303" style="mask-type:luminance" maskUnits="userSpaceOnUse" x="16" y="21" width="110" height="110"><path d="M125.318 21.9117H16V130.599H125.318V21.9117Z" fill="white"></path></mask><g mask="url(#mask0_17_303)"><path d="M41.6215 102.13C42.5644 102.13 43.3296 102.891 43.3296 103.828H46.7459C46.7459 101.019 44.4467 98.7334 41.6215 98.7334V95.3368H38.2053V98.7334H33.081V103.828C33.081 106.637 35.3801 108.923 38.2053 108.923H41.6215C42.5644 108.923 43.3296 109.684 43.3296 110.621V112.319H38.2053C37.2624 112.319 36.4972 111.559 36.4972 110.621H33.081C33.081 113.43 35.3801 115.716 38.2053 115.716V119.112H41.6215V115.716H46.7459V110.621C46.7459 107.812 44.4467 105.526 41.6215 105.526H38.2053C37.2624 105.526 36.4972 104.766 36.4972 103.828V102.13H41.6215Z" fill="black"></path><path d="M123.61 46.0878V24.0107H101.405V27.4072H117.779L87.7402 57.2724L75.7834 45.3848L55.3188 65.7315C54.3024 65.1337 53.134 64.7686 51.8701 64.7686C49.5984 64.7686 48.3924 66.139 47.593 67.0459C46.8483 67.8916 46.551 68.165 45.8867 68.165C45.2206 68.165 44.925 67.8916 44.1786 67.0459C43.3791 66.139 42.1732 64.7686 39.9031 64.7686C37.6348 64.7686 36.4289 66.1406 35.6295 67.0476C34.8882 67.8916 34.591 68.165 33.9282 68.165C33.2655 68.165 32.97 67.8916 32.2287 67.0476C31.431 66.1406 30.2251 64.7686 27.9567 64.7686C24.1887 64.7686 21.1243 67.8151 21.1243 71.5616C21.1243 73.0203 21.6095 74.4672 22.4908 75.6374L30.7649 86.6046L25.1128 91.521C20.407 95.6155 17.7082 101.529 17.7082 107.746C17.7082 119.632 27.4341 129.302 39.389 129.302H40.4362C44.7593 129.302 48.7802 128.023 52.1655 125.848C52.8573 127.85 54.7499 129.302 56.9944 129.302H91.1563H118.486C121.311 129.302 123.61 127.016 123.61 124.207V120.811C123.61 119.501 123.096 118.318 122.278 117.414C123.098 116.511 123.61 115.327 123.61 114.017V110.621C123.61 109.312 123.096 108.128 122.278 107.225C123.098 106.321 123.61 105.137 123.61 103.828V100.432C123.61 99.1222 123.096 97.9386 122.278 97.0351C123.098 96.1317 123.61 94.9481 123.61 93.6388V90.2422C123.61 87.4332 121.311 85.1475 118.486 85.1475H116.778V51.1827H103.113V85.1475H99.6968V68.165H86.0321V85.1475H84.3239C83.7227 85.1475 83.1521 85.2696 82.6158 85.4599V61.372H68.951V95.3368H58.1406C57.1567 93.9493 56.0224 92.6587 54.714 91.521L49.0621 86.6046L57.3377 75.6374C58.2173 74.4672 58.7025 73.0203 58.7025 71.5616C58.7025 70.3047 58.3353 69.1432 57.734 68.1328L75.7834 50.1874L87.7402 62.0752L120.194 29.8085V46.0878H123.61ZM56.9944 125.905C56.0514 125.905 55.2862 125.145 55.2862 124.207V123.411C56.5878 122.191 57.7356 120.817 58.7025 119.313V122.509H62.1186V119.112H65.5349V122.509H68.951V119.112H72.3673V122.509H75.7834V119.112H79.1997V122.509H82.6158V119.112H86.0321V122.509H89.4482V119.112H91.1563C92.0992 119.112 92.8645 119.873 92.8645 120.811V124.207C92.8645 125.145 92.0992 125.905 91.1563 125.905H56.9944ZM62.0588 108.923H65.5349V112.319H68.951V108.923H72.3673V112.319H75.7834V108.923H79.1997V112.319H82.6158V108.923H86.0321V112.319H89.4482V108.923H91.1563C92.0992 108.923 92.8645 109.684 92.8645 110.621V114.017C92.8645 114.955 92.0992 115.716 91.1563 115.716H60.5642C61.4166 113.595 61.9274 111.311 62.0588 108.923ZM103.113 102.13V98.7335H106.529V102.13H109.945V98.7335H113.362V102.13H116.778V98.7335H118.486C119.429 98.7335 120.194 99.4943 120.194 100.432V103.828C120.194 104.766 119.429 105.526 118.486 105.526H95.9663C96.1577 104.993 96.2805 104.426 96.2805 103.828V100.432C96.2805 99.834 96.1577 99.2667 95.9663 98.7335H99.6968V102.13H103.113ZM120.194 110.621V114.017C120.194 114.955 119.429 115.716 118.486 115.716H95.9663C96.1577 115.182 96.2805 114.615 96.2805 114.017V110.621C96.2805 110.023 96.1577 109.456 95.9663 108.923H99.6968V112.319H103.113V108.923H106.529V112.319H109.945V108.923H113.362V112.319H116.778V108.923H118.486C119.429 108.923 120.194 109.684 120.194 110.621ZM120.194 124.207C120.194 125.145 119.429 125.905 118.486 125.905H95.9663C96.1577 125.372 96.2805 124.805 96.2805 124.207V120.811C96.2805 120.213 96.1577 119.646 95.9663 119.112H99.6968V122.509H103.113V119.112H106.529V122.509H109.945V119.112H113.362V122.509H116.778V119.112H118.486C119.429 119.112 120.194 119.873 120.194 120.811V124.207ZM106.529 54.579H113.362V85.1475H106.529V54.579ZM89.4482 71.5616H96.2805V85.1475H89.4482V71.5616ZM84.3239 88.5439H86.0321V91.9405H89.4482V88.5439H92.8645V91.9405H96.2805V88.5439H99.6968V91.9405H103.113V88.5439H106.529V91.9405H109.945V88.5439H113.362V91.9405H116.778V88.5439H118.486C119.429 88.5439 120.194 89.3047 120.194 90.2422V93.6388C120.194 94.576 119.429 95.3368 118.486 95.3368H94.5724H91.1563H84.3239C83.381 95.3368 82.6158 94.576 82.6158 93.6388V90.2422C82.6158 89.3047 83.381 88.5439 84.3239 88.5439ZM72.3673 64.7686H79.1997V90.2422V93.6388V95.3368H72.3673V64.7686ZM65.5349 98.7335V102.13H68.951V98.7335H72.3673V102.13H75.7834V98.7335H79.1997V102.13H82.6158V98.7335H84.3239H86.0321V102.13H89.4482V98.7335H91.1563C92.0992 98.7335 92.8645 99.4943 92.8645 100.432V103.828C92.8645 104.766 92.0992 105.526 91.1563 105.526H61.9991C61.7532 103.161 61.1159 100.868 60.1269 98.7335H65.5349ZM58.7025 107.746C58.7025 117.759 50.5088 125.905 40.4378 125.905H39.3907C29.3181 125.905 21.1243 117.759 21.1243 107.746C21.1243 102.51 23.3978 97.5277 27.3606 94.0786L33.7233 88.5439H46.1035L52.4663 94.0786C56.4289 97.5277 58.7025 102.51 58.7025 107.746ZM54.6047 73.5993L45.8918 85.1475H33.9351L25.2238 73.5993C24.7831 73.0152 24.5406 72.2919 24.5406 71.5616C24.5406 69.6884 26.0727 68.165 27.9567 68.165C28.6195 68.165 28.915 68.4385 29.6563 69.2824C30.454 70.1893 31.6599 71.5616 33.9282 71.5616C36.1966 71.5616 37.4025 70.1893 38.2019 69.2824C38.9449 68.4385 39.2404 68.165 39.9031 68.165C40.5676 68.165 40.8648 68.4385 41.6096 69.2842C42.409 70.1909 43.6148 71.5616 45.8867 71.5616C48.1566 71.5616 49.3626 70.1909 50.162 69.2842C50.9084 68.4385 51.204 68.165 51.8701 68.165C53.7541 68.165 55.2862 69.6884 55.2862 71.5616C55.2862 72.2919 55.0436 73.0152 54.6047 73.5993Z" fill="black"></path></g></g><defs><clipPath id="clip0_17_303"><rect width="109.318" height="111" fill="white" transform="translate(16 20)"></rect></clipPath></defs></svg> 