<?xml version="1.0" encoding="UTF-8"?> <svg xmlns="http://www.w3.org/2000/svg" width="44" height="43" viewBox="0 0 44 43" fill="none"><g id="step-icon1" clip-path="url(#clip0_310_1492)"><g id="Clip path group"><mask id="mask0_310_1492" style="mask-type:luminance" maskUnits="userSpaceOnUse" x="0" y="0" width="44" height="43"><g id="clip0"><path id="Vector" d="M0 0H43.2147V42.56H0V0Z" fill="white"></path></g></mask><g mask="url(#mask0_310_1492)"><g id="Group"><path id="Vector_2" d="M40.8936 3.82379H26.8102L26.5476 2.69104C26.3047 1.64472 25.3743 0.914001 24.2847 0.914001H2.32116C1.04108 0.914001 0 1.94002 0 3.20045V32.2931C0 33.5536 1.04108 34.5796 2.32116 34.5796H19.9246C20.1106 35.6423 20.8393 36.5393 21.8883 36.9433L22.9071 37.3362C23.1026 37.9077 23.5145 38.3798 24.0542 38.6509V39.692C24.0542 40.7685 24.9447 41.6445 26.0382 41.6445H32.6212C33.7147 41.6445 34.6052 40.7685 34.6052 39.6914V38.6503C34.9839 38.4617 35.3027 38.1716 35.5262 37.8124C35.7497 37.4532 35.869 37.039 35.8709 36.6159V32.0849H39.6273C40.2087 32.0849 40.6814 31.62 40.6814 31.0465V7.97896H41.9478V32.2931C41.9455 32.5706 41.8332 32.8359 41.6356 33.0307C41.438 33.2256 41.1711 33.334 40.8936 33.3323H38.1927C38.0261 33.331 37.8658 33.396 37.7471 33.5129C37.6283 33.6298 37.5609 33.789 37.5595 33.9556C37.5601 34.0381 37.577 34.1198 37.6091 34.1958C37.6412 34.2718 37.688 34.3408 37.7468 34.3987C37.8056 34.4567 37.8753 34.5025 37.9518 34.5335C38.0283 34.5645 38.1101 34.5802 38.1927 34.5796H40.8936C42.1737 34.5796 43.2147 33.5536 43.2147 32.2931V6.10959C43.2147 4.84916 42.1737 3.82379 40.8936 3.82379ZM25.3134 2.96867L25.5118 3.82379H20.0575L19.7956 2.69104C19.7527 2.50687 19.6872 2.32873 19.6005 2.16068H24.2847C24.7804 2.16068 25.204 2.4933 25.3134 2.96867ZM17.5327 2.16134C18.0277 2.16134 18.4507 2.4933 18.5607 2.96867L18.7591 3.82379H12.6174L12.3542 2.69104C12.3115 2.50689 12.2462 2.32875 12.1597 2.16068H17.5334L17.5327 2.16134ZM2.32116 2.16134H10.09C10.5856 2.16134 11.0086 2.4933 11.1186 2.96867L11.4938 4.58594C11.5599 4.86946 11.816 5.07047 12.1113 5.07047H40.8929C41.1706 5.06856 41.4376 5.17692 41.6354 5.37175C41.8332 5.56659 41.9455 5.83197 41.9478 6.10959V6.73293H1.26632V3.20045C1.26857 2.92295 1.38084 2.65767 1.57848 2.46285C1.77612 2.26803 2.04299 2.15959 2.3205 2.16134H2.32116ZM21.1425 34.0414V30.5757C21.1425 30.1304 21.5098 29.767 21.9609 29.7651C22.1829 29.7638 22.3898 29.8476 22.5463 30.0008C22.7021 30.154 22.7886 30.3583 22.7886 30.575V35.952L22.3499 35.7824C21.9952 35.6496 21.6896 35.4116 21.4738 35.1004C21.258 34.7891 21.1424 34.4194 21.1425 34.0407V34.0414ZM35.9553 20.8635V24.6042H32.3325V20.8635H35.9566H35.9553ZM31.0648 24.6042H27.0092V24.0607C27.0092 23.4937 26.7722 22.9391 26.3584 22.539C26.1602 22.3457 25.9257 22.1935 25.6683 22.0915C25.4109 21.9894 25.1358 21.9395 24.859 21.9445C23.7177 21.9655 22.7892 22.8979 22.7892 24.0228V24.6042H20.4255V20.8635H31.0655L31.0648 24.6042ZM32.6219 40.3992H26.0388C25.8501 40.4004 25.6685 40.3267 25.534 40.1943C25.3995 40.0618 25.3229 39.8815 25.3212 39.6927V38.903H33.3395V39.6927C33.3378 39.8815 33.2613 40.062 33.1268 40.1945C32.9923 40.327 32.8107 40.4002 32.6219 40.3992ZM34.6058 36.6172C34.6058 37.1902 34.1324 37.6564 33.5504 37.6564H25.1104C24.5276 37.6564 24.0549 37.1902 24.0549 36.6172V24.0234C24.0549 23.5736 24.4261 23.2004 24.8832 23.1919H24.8976C25.1091 23.1919 25.3127 23.2757 25.4718 23.4295C25.644 23.5965 25.7429 23.8263 25.7429 24.0614V31.7536C25.7443 31.9202 25.8117 32.0794 25.9305 32.1963C26.0492 32.3132 26.2095 32.3782 26.3761 32.377C26.5426 32.3782 26.7029 32.3132 26.8216 32.1963C26.9404 32.0794 27.0078 31.9202 27.0092 31.7536V30.2575C27.0092 29.7991 27.3883 29.4259 27.8539 29.4259C28.3188 29.4259 28.6972 29.7991 28.6972 30.2575V31.7536C28.6986 31.9202 28.7661 32.0794 28.8848 32.1963C29.0035 32.3132 29.1638 32.3782 29.3304 32.377C29.497 32.3782 29.6572 32.3132 29.776 32.1963C29.8947 32.0794 29.9621 31.9202 29.9635 31.7536V30.2575C29.9635 29.7991 30.342 29.4259 30.8075 29.4259C31.2724 29.4259 31.6515 29.7991 31.6515 30.2575V31.7536C31.6529 31.9202 31.7204 32.0794 31.8391 32.1963C31.9578 32.3132 32.1181 32.3782 32.2847 32.377C32.4512 32.378 32.6113 32.313 32.7298 32.1961C32.8484 32.0792 32.9158 31.9201 32.9172 31.7536V30.2575C32.9172 29.8076 33.2884 29.4344 33.7455 29.4259C33.9615 29.422 34.1711 29.5064 34.3348 29.6636C34.5063 29.8306 34.6058 30.061 34.6058 30.2954V36.6172ZM39.4164 30.8402H35.8715V30.2961C35.8701 30.012 35.8117 29.731 35.7 29.4697C35.5882 29.2085 35.4252 28.9723 35.2207 28.7751C35.0227 28.5814 34.7882 28.4291 34.5307 28.327C34.2733 28.2249 33.9981 28.1751 33.7212 28.1805C33.1849 28.1908 32.6724 28.4042 32.2873 28.7777C31.8907 28.3933 31.3598 28.1789 30.8075 28.1799C30.2326 28.1799 29.7108 28.4071 29.3304 28.7757C28.9342 28.3926 28.4044 28.1788 27.8532 28.1799C27.563 28.1796 27.2758 28.2386 27.0092 28.3534V25.8522H36.1668C36.7495 25.8522 37.2223 25.3866 37.2223 24.8131V20.6572C37.2223 20.0843 36.7489 19.6181 36.1668 19.6181H20.2147C19.937 19.6162 19.67 19.7246 19.4722 19.9194C19.2745 20.1142 19.1621 20.3796 19.1598 20.6572V24.8137C19.1598 25.3866 19.6326 25.8522 20.2147 25.8522H22.7892V28.6847C22.5287 28.5752 22.2488 28.5191 21.9662 28.5197H21.9564C20.8099 28.5249 19.8768 29.4482 19.8768 30.577V30.8402H3.79831V10.2661C3.79693 10.0995 3.72946 9.94023 3.61074 9.82335C3.49202 9.70647 3.33175 9.6415 3.16515 9.64272C2.99855 9.6415 2.83829 9.70647 2.71956 9.82335C2.60084 9.94023 2.53337 10.0995 2.53199 10.2661V31.0471C2.53199 31.62 3.00539 32.0862 3.58748 32.0862H19.8768V33.3329H2.32116C2.04353 33.3348 1.7765 33.2265 1.57871 33.0316C1.38093 32.8368 1.26857 32.5714 1.26632 32.2938V7.98027H39.4164V30.8396V30.8402Z" fill="black"></path><path id="Vector_3" d="M20.2146 18.3708H36.1667C36.7495 18.3708 37.2222 17.9046 37.2222 17.3317V13.1752C37.2222 12.6023 36.7488 12.1361 36.1667 12.1361H20.2146C19.937 12.1342 19.6699 12.2425 19.4721 12.4374C19.2744 12.6322 19.162 12.8976 19.1598 13.1752V17.3317C19.162 17.6093 19.2744 17.8747 19.4721 18.0695C19.6699 18.2644 19.937 18.3727 20.2146 18.3708ZM35.9559 17.1235H32.3324V13.3834H35.9565V17.1241L35.9559 17.1235ZM20.4254 13.3834H31.0654V17.1241H20.4254V13.3834ZM6.58362 13.3834H16.0365C16.1191 13.384 16.2009 13.3684 16.2774 13.3373C16.3539 13.3063 16.4235 13.2605 16.4823 13.2026C16.5411 13.1446 16.5879 13.0757 16.6201 12.9996C16.6522 12.9236 16.6691 12.842 16.6697 12.7594C16.6683 12.5928 16.6008 12.4336 16.4821 12.3167C16.3634 12.1998 16.2031 12.1349 16.0365 12.1361H6.58362C6.41702 12.1349 6.25675 12.1998 6.13803 12.3167C6.0193 12.4336 5.95184 12.5928 5.95046 12.7594C5.95106 12.842 5.96791 12.9236 6.00005 12.9996C6.0322 13.0757 6.079 13.1446 6.1378 13.2026C6.19659 13.2605 6.26622 13.3063 6.34272 13.3373C6.41921 13.3684 6.50107 13.384 6.58362 13.3834ZM6.58362 15.8768H16.0365C16.2031 15.878 16.3634 15.813 16.4821 15.6962C16.6008 15.5793 16.6683 15.42 16.6697 15.2534C16.6683 15.0868 16.6008 14.9276 16.4821 14.8107C16.3634 14.6939 16.2031 14.6289 16.0365 14.6301H6.58362C6.41702 14.6289 6.25675 14.6939 6.13803 14.8107C6.0193 14.9276 5.95184 15.0868 5.95046 15.2534C5.95184 15.42 6.0193 15.5793 6.13803 15.6962C6.25675 15.813 6.41702 15.878 6.58362 15.8768ZM6.58362 18.3708H13.1667C13.3333 18.372 13.4935 18.3071 13.6123 18.1902C13.731 18.0733 13.7984 17.9141 13.7998 17.7475C13.7992 17.6649 13.7824 17.5833 13.7502 17.5073C13.7181 17.4312 13.6713 17.3623 13.6125 17.3043C13.5537 17.2464 13.4841 17.2006 13.4076 17.1696C13.3311 17.1385 13.2492 17.1229 13.1667 17.1235H6.58362C6.50107 17.1229 6.41921 17.1385 6.34272 17.1696C6.26622 17.2006 6.19659 17.2464 6.1378 17.3043C6.079 17.3623 6.0322 17.4312 6.00005 17.5073C5.96791 17.5833 5.95106 17.6649 5.95046 17.7475C5.95184 17.9141 6.0193 18.0733 6.13803 18.1902C6.25675 18.3071 6.41702 18.372 6.58362 18.3708ZM6.58362 20.8642H16.0365C16.2031 20.8654 16.3634 20.8004 16.4821 20.6835C16.6008 20.5667 16.6683 20.4074 16.6697 20.2408C16.6683 20.0742 16.6008 19.915 16.4821 19.7981C16.3634 19.6812 16.2031 19.6163 16.0365 19.6175H6.58362C6.41702 19.6163 6.25675 19.6812 6.13803 19.7981C6.0193 19.915 5.95184 20.0742 5.95046 20.2408C5.95184 20.4074 6.0193 20.5667 6.13803 20.6835C6.25675 20.8004 6.41702 20.8654 6.58362 20.8642ZM6.58362 23.3582H13.1667C13.3333 23.3594 13.4935 23.2944 13.6123 23.1775C13.731 23.0607 13.7984 22.9014 13.7998 22.7348C13.7992 22.6523 13.7824 22.5707 13.7502 22.4946C13.7181 22.4186 13.6713 22.3496 13.6125 22.2917C13.5537 22.2338 13.4841 22.188 13.4076 22.1569C13.3311 22.1259 13.2492 22.1102 13.1667 22.1108H6.58362C6.50107 22.1102 6.41921 22.1259 6.34272 22.1569C6.26622 22.188 6.19659 22.2338 6.1378 22.2917C6.079 22.3496 6.0322 22.4186 6.00005 22.4946C5.96791 22.5707 5.95106 22.6523 5.95046 22.7348C5.95184 22.9014 6.0193 23.0607 6.13803 23.1775C6.25675 23.2944 6.41702 23.3594 6.58362 23.3582ZM6.58362 25.7684H10.6347C10.8013 25.7696 10.9615 25.7046 11.0803 25.5877C11.199 25.4709 11.2664 25.3116 11.2678 25.145C11.2664 24.9784 11.199 24.8192 11.0803 24.7023C10.9615 24.5854 10.8013 24.5205 10.6347 24.5217H6.58362C6.41702 24.5205 6.25675 24.5854 6.13803 24.7023C6.0193 24.8192 5.95184 24.9784 5.95046 25.145C5.95106 25.2276 5.96791 25.3092 6.00005 25.3852C6.0322 25.4613 6.079 25.5302 6.1378 25.5882C6.19659 25.6461 6.26622 25.6919 6.34272 25.7229C6.41921 25.754 6.50107 25.769 6.58362 25.7684ZM4.13544 5.07048H8.44054C8.60703 5.07153 8.76713 5.00648 8.88571 4.88962C9.00429 4.77276 9.07166 4.61363 9.07305 4.44714C9.07166 4.28066 9.00429 4.12153 8.88571 4.00467C8.76713 3.8878 8.60703 3.82276 8.44054 3.8238H4.13544C3.96895 3.82276 3.80885 3.8878 3.69027 4.00467C3.57169 4.12153 3.50431 4.28066 3.50293 4.44714C3.50431 4.61363 3.57169 4.77276 3.69027 4.88962C3.80885 5.00648 3.96895 5.07153 4.13544 5.07048Z" fill="black"></path></g></g></g></g><defs><clipPath id="clip0_310_1492"><rect width="43.2147" height="42.56" fill="white"></rect></clipPath></defs></svg> 