<?xml version="1.0" encoding="UTF-8"?> <svg xmlns="http://www.w3.org/2000/svg" width="46" height="46" viewBox="0 0 46 46" fill="none"><path id="Vector" d="M45.6701 0H0V37.7716H24.3083V45.035H39.7772V37.7716H45.6701V0ZM44.1969 5.81042H35.3575V1.45228H44.1969V5.81042ZM33.8843 1.45228V5.81042H1.47323V1.45228H33.8843ZM38.304 43.5827H36.0941V34.1396H34.6209V43.5827H25.7815V36.3822C25.7815 35.1526 24.891 34.0997 23.6647 33.881L21.3075 33.458C19.205 33.0802 17.6788 31.2776 17.6788 29.1693V20.7025C17.6788 20.1014 18.1744 19.6129 18.784 19.6129C19.3929 19.6129 19.8886 20.1014 19.8886 20.7025V27.6031C19.8886 29.2053 21.2099 30.5083 22.8351 30.5083H25.9439L27.592 37.0141L30.2012 34.4408L32.8105 37.0141L34.3204 31.0557C36.6618 32.0647 38.304 34.3688 38.304 37.0455V43.5827ZM26.5181 25.4234C26.5181 23.4204 28.1701 21.7914 30.2012 21.7914C32.2323 21.7914 33.8843 23.4204 33.8843 25.4234C33.8843 27.4256 32.2323 29.0547 30.2012 29.0547C28.1701 29.0547 26.5181 27.4263 26.5181 25.4234ZM30.2012 32.1033L29.1228 30.5076H31.2803L30.2012 32.1033ZM28.3908 34.1724L27.5271 30.7676L29.2531 33.3212L28.3908 34.1724ZM32.8746 30.7682L32.0116 34.1724L31.1493 33.3212L32.8746 30.7682ZM39.7399 36.3194C39.423 32.8772 36.8838 30.0644 33.5517 29.2806C34.6549 28.3476 35.3575 26.966 35.3575 25.424C35.3575 22.6196 33.0436 20.3391 30.2012 20.3391C27.3589 20.3391 25.0449 22.6196 25.0449 25.424C25.0456 26.1029 25.1837 26.7747 25.4509 27.3988C25.7182 28.0229 26.1091 28.5864 26.6 29.0554H22.8351C22.0231 29.0554 21.3618 28.4039 21.3618 27.6031V20.7018C21.3618 19.3006 20.2055 18.16 18.7834 18.16C17.3625 18.16 16.2055 19.3 16.2055 20.7025V29.1699C16.2055 31.9789 18.2405 34.3845 21.0443 34.8861L23.4008 35.3097C23.905 35.4001 24.2664 35.8204 24.2965 36.3187H1.47323V7.26335H44.1969V36.3187L39.7399 36.3194Z" fill="black"></path></svg> 