<svg id="Layer_1" data-name="Layer 1" xmlns="http://www.w3.org/2000/svg" xmlns:xlink="http://www.w3.org/1999/xlink" viewBox="0 0 192.65 120"><defs><style>.cls-1{fill:none;}.cls-2{fill:#f5a800;}.cls-3{clip-path:url(#clip-path);}.cls-4{fill:#fff;}.cls-5{fill:#b9bec3;}</style><clipPath id="clip-path" transform="translate(-324.13 -237.85)"><rect class="cls-1" x="324.13" y="237.85" width="192.65" height="120"/></clipPath></defs><polygon class="cls-2" points="127.74 0 120.14 6.34 103.55 20.19 111.05 26.44 120.14 18.85 120.14 34.04 120.14 46.09 103.82 32.47 96.33 26.22 88.83 32.47 72.5 46.09 72.5 34.37 81.81 26.61 89.3 20.36 96.53 14.33 113.7 0 98.7 0 89.03 8.07 81.81 14.1 74.31 20.36 72.5 21.86 72.5 18.85 72.5 10.14 74.78 8.24 82.01 2.21 84.66 0 62.89 0 62.89 5.65 62.89 10.83 62.89 18.16 62.89 29.89 62.89 42.4 62.89 54.12 62.89 66.63 72.5 58.6 96.33 38.73 120.14 58.6 129.76 66.63 129.76 54.12 129.76 42.06 129.76 10.83 129.76 0 127.74 0"/><g class="cls-3"><path class="cls-4" d="M434.08,324.39v-4.22c-2.07.17-3.94.26-5.6.26-.77,0-1.91,0-3.43-.1v2.55a6.31,6.31,0,0,1,2.07.26c.69.27,1,1.22,1,2.85v10.87a8.61,8.61,0,0,1-.24,2.34c-.28.95-1.35,1.47-3.19,1.54v2.66q2.34-.11,6.91-.11c3.05,0,5.31,0,6.8.11v-2.66a8,8,0,0,1-2.42-.27c-.87-.3-1.3-1.34-1.3-3.11V331q0-7.68,4.56-7.68,2.7,0,2.7,3.88v.64h3v-7.66a12.69,12.69,0,0,0-3.77-.66q-5,0-7.18,4.83" transform="translate(-324.13 -237.85)"/><path class="cls-4" d="M370.4,314.08a4,4,0,0,1,2.45-1.17V310c-3,.07-5.17.11-6.59.11s-3.52,0-6.35-.11v2.87c2.42.07,3.64.76,3.64,2.08a6.83,6.83,0,0,1-.16,1.3l-4.84,22.21L352.89,310h-8.34l-5.67,28.47-4.89-22a6.93,6.93,0,0,1-.16-1.41,1.83,1.83,0,0,1,1.28-1.91,10.9,10.9,0,0,1,2.58-.27V310c-3.05.07-5.33.11-6.86.11s-3.72,0-6.7-.11v2.87a2.39,2.39,0,0,1,2.1,1,8.21,8.21,0,0,1,.85,2.28l7.23,27.75h8.62l5.49-28.43,5.49,28.43h8.49l6.91-27.32a6.24,6.24,0,0,1,1.09-2.53" transform="translate(-324.13 -237.85)"/><path class="cls-4" d="M386.21,329.68H375.42q.63-6.62,5.84-6.62c3.3,0,4.95,2.16,4.95,6.46ZM381,319.61a14,14,0,0,0-6.64,1.46q-5.71,3.06-5.72,10.95a14,14,0,0,0,1.44,6.54q2.93,5.61,10.81,5.61,10.39,0,11-7.63h-4.2q-1.07,4.17-5.77,4.17-6.48,0-6.48-7.57h17c.05-.71.08-1.15.08-1.31q0-12.22-11.56-12.22" transform="translate(-324.13 -237.85)"/><path class="cls-4" d="M472.86,337.74V320.22c-1.64.14-3.53.21-5.66.21-1.86,0-3.24,0-4.14-.1V323a3.9,3.9,0,0,1,2.62.74,4.12,4.12,0,0,1,.62,2.68v7.13q0,6.65-5.38,6.64-4.19,0-4.19-5.45V320.22c-1.58.14-3.42.21-5.53.21-1.86,0-3.26,0-4.2-.1V323a6.21,6.21,0,0,1,2.21.34q1,.45,1,3.24v7.31q0,5.08,1.59,7.44,1.92,2.85,6.73,2.85,6.13,0,8.42-4.63v4q3-.27,5.55-.27c.8,0,2,0,3.49.11v-2.56a5.73,5.73,0,0,1-2.05-.26c-.69-.28-1-1.23-1-2.84" transform="translate(-324.13 -237.85)"/><path class="cls-4" d="M490,329.79c-1.46-.53-2.49-.91-3.11-1.12a12.42,12.42,0,0,1-2.4-1,2.37,2.37,0,0,1-1.24-2.07c0-2.06,1.52-3.08,4.57-3.08,3.34,0,5,1.63,5,4.89h3v-6.59a30.26,30.26,0,0,0-8.38-1.2q-10.12,0-10.12,7c0,2.59,1.34,4.6,4,6a40.93,40.93,0,0,0,3.92,1.64c1.87.71,2.92,1.13,3.15,1.25a2.92,2.92,0,0,1,1.88,2.5c0,2.22-1.54,3.32-4.62,3.32-3.67,0-5.5-1.64-5.5-4.94v-.82h-2.61v7.07a29,29,0,0,0,9.15,1.54q9.75,0,9.75-7.31a6.06,6.06,0,0,0-.69-3c-.87-1.55-2.8-2.91-5.79-4.06" transform="translate(-324.13 -237.85)"/><path class="cls-4" d="M513.36,336.33v.26q0,4-2.65,4c-1.51,0-2.27-1.19-2.27-3.56V323.76h7.31v-3.43h-7.31v-5.19h-3q-.8,5.61-7.8,5.77v2.85h4.2v13.55q0,6.85,7.22,6.86a11.14,11.14,0,0,0,4.36-.72c2.22-1,3.32-3.07,3.32-6.33v-.79Z" transform="translate(-324.13 -237.85)"/><path class="cls-4" d="M419.76,314.06c2.06,0,3.44.35,4.15,1.05a5.27,5.27,0,0,1,1,3.51h3.6V310l-4.38.06q-3.49,0-6.06,0h-9.2l-3.32,0c-2.22,0-4.48-.06-6.81-.06v8.58h3.38c0-1.76.38-3,1.12-3.63a5.78,5.78,0,0,1,3.77-.93H410v22.16a8.32,8.32,0,0,1-.29,2.47c-.39,1.21-1.46,1.81-3.19,1.81h-1.14v2.9q2.76-.11,8.31-.11t8.3.11v-2.9h-1.15a4.27,4.27,0,0,1-2.15-.45c-.9-.53-1.35-1.81-1.35-3.83V314.06Z" transform="translate(-324.13 -237.85)"/><path class="cls-5" d="M340.42,356.91a4.13,4.13,0,0,1-.88-2.92q0-3.86,3.63-3.86a4.59,4.59,0,0,1,1.06.12,3.32,3.32,0,0,1,.81.27c.18.1.27.2.27.29a.88.88,0,0,1-.14.39c-.09.15-.17.23-.24.23a1.35,1.35,0,0,1-.29-.13,3.23,3.23,0,0,0-.61-.24,3.07,3.07,0,0,0-.84-.1,2.52,2.52,0,0,0-2,.72,4.52,4.52,0,0,0,0,4.62,2.48,2.48,0,0,0,2,.73,2.92,2.92,0,0,0,.94-.13,4.64,4.64,0,0,0,.77-.32.67.67,0,0,1,.21-.09c.07,0,.15.07.25.23a.82.82,0,0,1,.15.35q0,.17-.36.36a3.64,3.64,0,0,1-.85.3,5,5,0,0,1-1.11.12,3.54,3.54,0,0,1-2.73-.94" transform="translate(-324.13 -237.85)"/><path class="cls-5" d="M353.17,355,352,351.8a5.51,5.51,0,0,1-.14-.63h0a3.31,3.31,0,0,1-.17.63L350.5,355Zm-4.61,2.59a.64.64,0,0,1,0-.15l2.66-7.12c0-.12.19-.17.45-.17H352c.27,0,.42.05.45.17l2.65,7.13a.27.27,0,0,1,0,.14c0,.13-.16.19-.48.19h-.09q-.39,0-.45-.18l-.66-1.77h-3.3l-.64,1.77c0,.12-.18.18-.44.18H349c-.32,0-.48-.06-.48-.19" transform="translate(-324.13 -237.85)"/><path class="cls-5" d="M361.57,353.73a1.54,1.54,0,0,0,.92-.31,1.27,1.27,0,0,0,.43-1.1,1.12,1.12,0,0,0-.44-1,2,2,0,0,0-1.07-.29h-1.59v2.71Zm-2.74,3.84v-7.05a.37.37,0,0,1,.08-.25.37.37,0,0,1,.26-.07h2.27a3.38,3.38,0,0,1,1.75.45,1.8,1.8,0,0,1,.75,1.67,2.06,2.06,0,0,1-.43,1.4,2.22,2.22,0,0,1-1,.67,3.36,3.36,0,0,1-1,.17h-1.74v3q0,.24-.45.24h-.09q-.45,0-.45-.24" transform="translate(-324.13 -237.85)"/><path class="cls-5" d="M367.94,357.57v-7.15q0-.24.45-.24h.09q.45,0,.45.24v7.15q0,.24-.45.24h-.09q-.45,0-.45-.24" transform="translate(-324.13 -237.85)"/><path class="cls-5" d="M375.21,357.57V351h-2.15a.21.21,0,0,1-.17-.07.52.52,0,0,1-.05-.25v-.18a.55.55,0,0,1,.05-.25.21.21,0,0,1,.17-.07h5.26a.18.18,0,0,1,.17.07.44.44,0,0,1,.05.25v.18a.43.43,0,0,1-.05.25.18.18,0,0,1-.17.07H376.2v6.55q0,.24-.45.24h-.09q-.45,0-.45-.24" transform="translate(-324.13 -237.85)"/><path class="cls-5" d="M385.66,355l-1.18-3.23a4.27,4.27,0,0,1-.13-.63h0a4.59,4.59,0,0,1-.16.63L383,355ZM381,357.62a.41.41,0,0,1,0-.15l2.65-7.12c0-.12.19-.17.45-.17h.32c.27,0,.42.05.45.17l2.66,7.13a.39.39,0,0,1,0,.14c0,.13-.16.19-.48.19h-.09q-.39,0-.45-.18l-.66-1.77h-3.29l-.64,1.77q-.06.18-.45.18h-.06c-.32,0-.48-.06-.48-.19" transform="translate(-324.13 -237.85)"/><path class="cls-5" d="M391.53,357.71a.34.34,0,0,1-.08-.25v-7q0-.24.45-.24H392q.45,0,.45.24V357h3.08a.19.19,0,0,1,.17.08.49.49,0,0,1,.05.25v.17a.49.49,0,0,1-.05.25.19.19,0,0,1-.17.08h-3.73a.37.37,0,0,1-.26-.08" transform="translate(-324.13 -237.85)"/><path class="cls-5" d="M407.92,355.53l-2-3.36c-.07-.11-.16-.27-.27-.49h-.05a4.33,4.33,0,0,1,0,.6v5.28q0,.24-.45.24h-.08q-.45,0-.45-.24v-7.15q0-.24.45-.24h.4c.24,0,.4.06.47.19l2.12,3.56a2.36,2.36,0,0,1,.29.68,4.51,4.51,0,0,1,.35-.72l2.06-3.52a.5.5,0,0,1,.47-.19h.37q.45,0,.45.24v7.15q0,.24-.45.24h-.08q-.45,0-.45-.24v-5.21a4.33,4.33,0,0,1,0-.6h-.05c-.11.22-.2.38-.27.49l-2,3.29a.24.24,0,0,1-.24.14h-.45a.26.26,0,0,1-.25-.14" transform="translate(-324.13 -237.85)"/><path class="cls-5" d="M420.44,355l-1.18-3.23a4.27,4.27,0,0,1-.13-.63h0a4.59,4.59,0,0,1-.16.63L417.76,355Zm-4.62,2.59a.64.64,0,0,1,0-.15l2.66-7.12c0-.12.19-.17.45-.17h.32c.27,0,.42.05.45.17l2.66,7.13a.39.39,0,0,1,0,.14c0,.13-.16.19-.48.19h-.09q-.39,0-.45-.18l-.66-1.77h-3.29l-.64,1.77q-.06.18-.45.18h-.06c-.32,0-.48-.06-.48-.19" transform="translate(-324.13 -237.85)"/><path class="cls-5" d="M426.15,357.57v-7.15q0-.24.45-.24h.23a.78.78,0,0,1,.29,0,.47.47,0,0,1,.19.16l3.51,5.14a4.3,4.3,0,0,1,.37.65h.05a7.32,7.32,0,0,1,0-.74v-5c0-.16.15-.24.44-.24h.08q.45,0,.45.24v7.15q0,.24-.45.24h-.22q-.3,0-.39-.15l-3.61-5.27a4.3,4.3,0,0,1-.37-.65h0a6.61,6.61,0,0,1,0,.74v5.08q0,.24-.45.24h-.08q-.45,0-.45-.24" transform="translate(-324.13 -237.85)"/><path class="cls-5" d="M440.54,355l-1.18-3.23a4.27,4.27,0,0,1-.13-.63h0a4.59,4.59,0,0,1-.16.63L437.86,355Zm-4.62,2.59a.41.41,0,0,1,0-.15l2.65-7.12c.05-.12.2-.17.45-.17h.32c.27,0,.42.05.45.17l2.66,7.13a.39.39,0,0,1,0,.14c0,.13-.16.19-.48.19H442q-.39,0-.45-.18l-.66-1.77h-3.29l-.64,1.77q-.06.18-.45.18h-.06c-.32,0-.48-.06-.48-.19" transform="translate(-324.13 -237.85)"/><path class="cls-5" d="M451.77,354a.34.34,0,0,1,.07.25v2.87c0,.28-.23.48-.7.6a7.31,7.31,0,0,1-1.79.18,3.36,3.36,0,0,1-2.58-.94,4,4,0,0,1-.89-2.85q0-3.93,3.63-3.93a5,5,0,0,1,1,.11,2.86,2.86,0,0,1,.81.26c.2.11.3.21.3.31a.77.77,0,0,1-.14.39c-.09.15-.17.23-.24.23a1.18,1.18,0,0,1-.28-.13,3.35,3.35,0,0,0-.62-.24,3,3,0,0,0-.83-.1,2.43,2.43,0,0,0-2,.76,3.48,3.48,0,0,0-.61,2.24,4,4,0,0,0,.56,2.24,2.2,2.2,0,0,0,2,.83c.28,0,.55,0,.81,0a5.13,5.13,0,0,0,.64-.1V354.7h-1.31a.2.2,0,0,1-.17-.08.4.4,0,0,1-.06-.25v-.17a.4.4,0,0,1,.06-.25.2.2,0,0,1,.17-.08h2a.38.38,0,0,1,.26.08" transform="translate(-324.13 -237.85)"/><path class="cls-5" d="M456.53,357.71a.34.34,0,0,1-.08-.25v-6.94a.37.37,0,0,1,.08-.25.37.37,0,0,1,.26-.07h3.91a.18.18,0,0,1,.17.07.55.55,0,0,1,.05.25v.18a.52.52,0,0,1-.05.25.18.18,0,0,1-.17.07h-3.27v2.47h2.93a.19.19,0,0,1,.17.08.41.41,0,0,1,.05.25V354a.41.41,0,0,1-.05.25.19.19,0,0,1-.17.08h-2.93V357h3.28a.19.19,0,0,1,.17.08.49.49,0,0,1,.05.25v.17a.49.49,0,0,1-.05.25.19.19,0,0,1-.17.08h-3.92a.37.37,0,0,1-.26-.08" transform="translate(-324.13 -237.85)"/><path class="cls-5" d="M468.34,355.53l-2-3.36c-.07-.11-.15-.27-.27-.49h0c0,.13,0,.33,0,.6v5.28q0,.24-.45.24h-.08c-.29,0-.44-.08-.44-.24v-7.15c0-.16.15-.24.44-.24h.41a.5.5,0,0,1,.47.19l2.12,3.56a2.68,2.68,0,0,1,.29.68,4.3,4.3,0,0,1,.34-.72l2.07-3.52c.07-.13.23-.19.47-.19h.37c.3,0,.44.08.44.24v7.15c0,.16-.14.24-.44.24H472q-.45,0-.45-.24v-5.21c0-.27,0-.47,0-.6h0c-.11.22-.2.38-.27.49l-2,3.29a.26.26,0,0,1-.25.14h-.45a.24.24,0,0,1-.24-.14" transform="translate(-324.13 -237.85)"/><path class="cls-5" d="M477.27,357.71a.34.34,0,0,1-.08-.25v-6.94a.37.37,0,0,1,.08-.25.37.37,0,0,1,.26-.07h3.91a.18.18,0,0,1,.17.07.55.55,0,0,1,.05.25v.18a.52.52,0,0,1-.05.25.18.18,0,0,1-.17.07h-3.27v2.47h2.93a.19.19,0,0,1,.17.08.41.41,0,0,1,.05.25V354a.41.41,0,0,1-.05.25.19.19,0,0,1-.17.08h-2.93V357h3.28a.19.19,0,0,1,.17.08.49.49,0,0,1,.05.25v.17a.49.49,0,0,1-.05.25.19.19,0,0,1-.17.08h-3.92a.37.37,0,0,1-.26-.08" transform="translate(-324.13 -237.85)"/><path class="cls-5" d="M485.82,357.57v-7.15c0-.16.15-.24.44-.24h.24a.81.81,0,0,1,.29,0,.39.39,0,0,1,.18.16l3.52,5.14a4.3,4.3,0,0,1,.37.65h0c0-.17,0-.41,0-.74v-5q0-.24.45-.24h.08q.45,0,.45.24v7.15q0,.24-.45.24h-.23a.45.45,0,0,1-.39-.15l-3.61-5.27a5.37,5.37,0,0,1-.37-.65h0c0,.16,0,.41,0,.74v5.08q0,.24-.45.24h-.08c-.29,0-.44-.08-.44-.24" transform="translate(-324.13 -237.85)"/><path class="cls-5" d="M498.05,357.57V351H495.9a.21.21,0,0,1-.17-.07.43.43,0,0,1-.05-.25v-.18a.44.44,0,0,1,.05-.25.21.21,0,0,1,.17-.07h5.26a.18.18,0,0,1,.17.07.55.55,0,0,1,.05.25v.18a.52.52,0,0,1-.05.25.18.18,0,0,1-.17.07H499v6.55q0,.24-.45.24h-.09q-.45,0-.45-.24" transform="translate(-324.13 -237.85)"/></g></svg>